<?xml version="1.0" encoding="utf-8"?>
<svg xmlns="http://www.w3.org/2000/svg" fill="none" height="40" viewBox="0 0 122 40" width="122">
<path d="M45.1319 20.3836C42.2464 20.3836 40.044 19.5723 38.5304 17.959C37.0186 16.342 36.2637 14.0449 36.2637 11.0718C36.2637 9.58995 36.5002 8.27002 36.9562 7.11009C37.4141 5.95205 38.0517 4.96735 38.852 4.16549C39.6486 3.36553 40.6098 2.76366 41.7242 2.34463C42.833 1.94085 44.0382 1.72943 45.3362 1.72943C46.0874 1.72943 46.7704 1.78657 47.3834 1.89514C48.0002 2.00751 48.5376 2.13512 49.003 2.27988C49.459 2.42844 49.8469 2.58081 50.1553 2.7389C50.4675 2.89508 50.687 3.00746 50.8251 3.09507L49.6672 6.35013C49.1223 6.053 48.4808 5.8054 47.7562 5.6016C47.0334 5.3959 46.2084 5.29114 45.2832 5.29114C44.6683 5.29114 44.0666 5.3959 43.4744 5.6016C42.8841 5.8054 42.36 6.13681 41.9134 6.59392C41.4612 7.04342 41.096 7.63958 40.8236 8.35764C40.553 9.08902 40.413 9.96517 40.413 10.9899C40.413 11.8222 40.5076 12.5822 40.6817 13.304C40.8652 14.0164 41.149 14.6335 41.552 15.1439C41.9532 15.6658 42.4811 16.0715 43.1281 16.3743C43.7771 16.6753 44.568 16.8295 45.4913 16.8295C46.0741 16.8295 46.5869 16.7934 47.0542 16.721C47.5159 16.6524 47.9283 16.5705 48.2878 16.4734C48.6436 16.3839 48.9614 16.2734 49.2339 16.1496C49.5101 16.0334 49.7542 15.9248 49.9775 15.8182L51.0787 19.0466C50.5148 19.3894 49.7239 19.698 48.6946 19.976C47.6691 20.2484 46.4828 20.3836 45.1319 20.3836Z" fill="#0033A0"/>
<path d="M58.4824 6.08722C59.6176 6.08722 60.5523 6.21864 61.3016 6.47767C62.0546 6.73861 62.6601 7.1024 63.1123 7.58428C63.5645 8.07187 63.8881 8.6566 64.0735 9.33847C64.2589 10.0318 64.3573 10.7955 64.3573 11.6412V19.6369C63.8086 19.7569 63.048 19.896 62.0755 20.0617C61.0954 20.2274 59.9204 20.3074 58.5373 20.3074C57.6631 20.3074 56.8703 20.2312 56.1627 20.0731C55.4513 19.9245 54.8401 19.6693 54.3331 19.3132C53.8222 18.9608 53.4286 18.498 53.1543 17.9342C52.8781 17.3647 52.7456 16.6695 52.7456 15.8429C52.7456 15.0486 52.8951 14.3801 53.2186 13.8296C53.5308 13.283 53.9584 12.843 54.4882 12.5116C55.018 12.1859 55.6291 11.9536 56.3122 11.8069C56.9933 11.6602 57.7029 11.5898 58.437 11.5898C58.9308 11.5898 59.3717 11.6145 59.7558 11.6526C60.1417 11.6907 60.4483 11.7517 60.6923 11.8221V11.4564C60.6923 10.8031 60.4937 10.2775 60.1039 9.87749C59.7085 9.48894 59.0254 9.29085 58.0491 9.29085C57.4039 9.29085 56.7568 9.33847 56.1249 9.4337C55.4967 9.52893 54.9518 9.66036 54.4863 9.83177L53.9982 6.73861C54.2214 6.67004 54.4977 6.59576 54.8326 6.52148C55.1656 6.43768 55.527 6.36911 55.9205 6.30816C56.3141 6.25102 56.7303 6.19959 57.1655 6.15769C57.595 6.11008 58.0378 6.08722 58.4824 6.08722ZM58.7946 17.3418C59.1673 17.3418 59.5249 17.3323 59.8636 17.3114C60.208 17.2961 60.4823 17.2771 60.6905 17.2333V14.323C60.5334 14.2887 60.3045 14.2544 59.9961 14.2163C59.6952 14.1858 59.4076 14.1649 59.1522 14.1649C58.7965 14.1649 58.4559 14.1877 58.1361 14.2334C57.8221 14.2734 57.5458 14.3572 57.3093 14.4791C57.0652 14.5991 56.8798 14.761 56.7455 14.9686C56.6073 15.1781 56.5373 15.4353 56.5373 15.7419C56.5373 16.3438 56.7398 16.7628 57.1428 16.9933C57.542 17.2237 58.0945 17.3418 58.7946 17.3418Z" fill="#0033A0"/>
<path d="M80.3511 13.2355C80.3511 14.2868 80.2224 15.243 79.9651 16.1058C79.704 16.9667 79.3331 17.7 78.8317 18.3228C78.3379 18.938 77.7249 19.4199 76.9888 19.7665C76.2547 20.1075 75.409 20.2808 74.4516 20.2808C73.9199 20.2808 73.428 20.2313 72.9701 20.1303C72.5046 20.0256 72.06 19.877 71.6305 19.6904V24.8024H67.8123V6.92153C68.1528 6.81487 68.5464 6.71773 68.991 6.6225C69.4338 6.52727 69.9011 6.44727 70.3912 6.3787C70.8736 6.31014 71.3731 6.2549 71.8764 6.2111C72.3816 6.16538 72.8622 6.15015 73.3201 6.15015C74.4364 6.15015 75.4279 6.31204 76.2963 6.64726C77.1705 6.98248 77.9027 7.45674 78.5044 8.07004C79.1042 8.67572 79.5583 9.42235 79.8705 10.3023C80.1902 11.1727 80.3511 12.1555 80.3511 13.2355ZM76.4534 13.3421C76.4534 12.1574 76.1885 11.207 75.6568 10.4909C75.1308 9.78042 74.3399 9.42044 73.305 9.42044C72.9587 9.42044 72.6427 9.43377 72.3514 9.45854C72.0619 9.48901 71.8216 9.51567 71.6324 9.54805V16.4905C71.8708 16.6505 72.183 16.7762 72.5671 16.881C72.9587 16.9819 73.3447 17.0314 73.7401 17.0314C75.549 17.0295 76.4534 15.8049 76.4534 13.3421Z" fill="#0033A0"/>
<path d="M87.4766 2.53321C87.4766 3.23793 87.2458 3.79218 86.7973 4.19597C86.3432 4.60166 85.8116 4.79975 85.191 4.79975C84.5779 4.79975 84.0482 4.60166 83.5903 4.19597C83.1362 3.79218 82.911 3.23793 82.911 2.53321C82.911 1.82848 83.1362 1.26851 83.5903 0.864727C84.0482 0.46094 84.5779 0.257141 85.191 0.257141C85.8135 0.257141 86.3432 0.46094 86.7973 0.864727C87.2458 1.26661 87.4766 1.82658 87.4766 2.53321ZM87.1171 20.0237H83.2989V6.45108H87.1171V20.0237Z" fill="#0033A0"/>
<path d="M90.5739 3.07032L94.394 2.4494V6.45109H98.9804V9.65091H94.394V14.4259C94.394 15.2277 94.5397 15.8772 94.816 16.361C95.0979 16.841 95.6674 17.0867 96.5207 17.0867C96.9332 17.0867 97.3532 17.0448 97.7922 16.9705C98.2255 16.8924 98.6228 16.7838 98.9804 16.6505L99.5197 19.6389C99.0561 19.8237 98.5471 19.9913 97.9795 20.1303C97.4176 20.2694 96.7232 20.336 95.9039 20.336C94.8614 20.336 94.0005 20.1932 93.3136 19.9056C92.6325 19.6218 92.08 19.2237 91.6732 18.7209C91.2664 18.2123 90.9769 17.5971 90.8142 16.8791C90.6572 16.1496 90.572 15.3515 90.572 14.4792V3.07032H90.5739Z" fill="#0033A0"/>
<path d="M106.414 6.08722C107.548 6.08722 108.484 6.21864 109.23 6.47767C109.987 6.73861 110.588 7.1024 111.041 7.58428C111.495 8.07187 111.818 8.6566 111.998 9.33847C112.185 10.0318 112.286 10.7955 112.286 11.6412V19.6369C111.742 19.7569 110.98 19.896 109.998 20.0617C109.033 20.2274 107.845 20.3074 106.467 20.3074C105.599 20.3074 104.802 20.2312 104.091 20.0731C103.383 19.9245 102.772 19.6693 102.263 19.3132C101.749 18.9608 101.361 18.498 101.086 17.9342C100.808 17.3647 100.674 16.6695 100.674 15.8429C100.674 15.0486 100.831 14.3801 101.143 13.8296C101.465 13.283 101.883 12.843 102.413 12.5116C102.942 12.1859 103.552 11.9536 104.235 11.8069C104.916 11.6602 105.627 11.5898 106.358 11.5898C106.861 11.5898 107.3 11.6145 107.68 11.6526C108.068 11.6907 108.38 11.7517 108.621 11.8221V11.4564C108.621 10.8031 108.422 10.2775 108.03 9.87749C107.637 9.48894 106.952 9.29085 105.979 9.29085C105.328 9.29085 104.689 9.33847 104.057 9.4337C103.423 9.52893 102.876 9.66036 102.415 9.83177L101.93 6.73861C102.152 6.67004 102.428 6.59576 102.759 6.52148C103.098 6.43768 103.457 6.36911 103.853 6.30816C104.248 6.25102 104.659 6.19959 105.099 6.15769C105.533 6.11008 105.974 6.08722 106.414 6.08722ZM106.723 17.3418C107.101 17.3418 107.455 17.3323 107.799 17.3114C108.144 17.2961 108.412 17.2771 108.622 17.2333V14.323C108.471 14.2887 108.238 14.2544 107.93 14.2163C107.62 14.1858 107.343 14.1649 107.08 14.1649C106.723 14.1649 106.384 14.1877 106.07 14.2334C105.752 14.2734 105.472 14.3572 105.234 14.4791C104.995 14.5991 104.808 14.761 104.676 14.9686C104.536 15.1781 104.473 15.4353 104.473 15.7419C104.473 16.3438 104.666 16.7628 105.075 16.9933C105.474 17.2237 106.027 17.3418 106.723 17.3418Z" fill="#0033A0"/>
<path d="M121.131 20.2808C120.017 20.2694 119.114 20.1436 118.425 19.9246C117.731 19.698 117.19 19.3818 116.785 18.9723C116.382 18.5723 116.109 18.0866 115.968 17.5057C115.822 16.9286 115.752 16.2829 115.752 15.561V0.617108L119.568 0V14.782C119.568 15.1306 119.593 15.4334 119.642 15.7134C119.691 15.9877 119.795 16.2277 119.937 16.4086C120.083 16.601 120.289 16.7591 120.569 16.8791C120.836 16.9952 121.205 17.0752 121.666 17.1114L121.131 20.2808Z" fill="#0033A0"/>
<path d="M9.51527 14.5363H3.2487L0.770077 20.3836H0L5.93356 6.27771H6.39145C6.5712 6.27771 6.72067 6.31961 6.83987 6.40342C6.95718 6.48722 7.04422 6.61293 7.10098 6.78054L12.8056 20.3817H11.9731L9.51527 14.5363ZM9.2447 13.8659L6.37063 7.03386L3.49846 13.8659H9.2447Z" fill="#0033A0"/>
<path d="M21.6114 6.2796V6.99194H15.9067V12.9649H21.2159V13.6354H15.9067V20.3836H15.1575V6.2796H21.6114Z" fill="#0033A0"/>
<path d="M24.2754 6.2796H28.086C28.8485 6.2796 29.5297 6.45864 30.1257 6.81481C30.7217 7.17098 31.1834 7.64905 31.5107 8.25092C31.8361 8.85279 31.9989 9.49466 31.9989 10.1784C31.9989 10.8622 31.8361 11.5022 31.5107 12.0964C31.1834 12.6907 30.7236 13.1687 30.1257 13.5325C29.5278 13.8963 28.8485 14.0773 28.086 14.0773H25.0247V20.3855H24.2754V6.2796ZM29.7 12.9326C30.1919 12.6316 30.5703 12.2336 30.8352 11.7383C31.0982 11.2431 31.2307 10.7155 31.2307 10.1556C31.2307 9.61085 31.0982 9.09088 30.8352 8.59376C30.5703 8.09855 30.1938 7.70048 29.7 7.39954C29.2062 7.0986 28.648 6.94814 28.0236 6.94814H25.0247V13.3821H28.0236C28.648 13.384 29.2062 13.2335 29.7 12.9326Z" fill="#0033A0"/>
<path clip-rule="evenodd" d="M99.688 32.3658L99.6899 35.9104C99.6918 37.1351 98.4771 37.7351 97.2416 37.7351C95.9644 37.7351 94.8727 37.1351 94.8727 35.9104V31.0707C95.4044 31.0707 96.0061 31.2459 96.008 32.2192L96.0174 35.6323C96.0193 36.2971 96.515 36.6304 97.2756 36.6304C97.9965 36.6304 98.5452 36.2971 98.5452 35.6323L98.5414 31.0707C99.3323 31.0707 99.688 31.4097 99.688 32.3658ZM103.616 31.0707C102.199 31.0707 101.228 31.8954 101.228 33.5848V37.6475H102.369V33.5467C102.369 32.6744 102.835 32.1525 103.714 32.1525H104.051C105.05 32.1525 105.215 31.6326 105.215 31.0707H103.616ZM108.494 31.0707H111.022V32.0059V37.6475C110.305 37.6475 109.943 37.4418 109.858 36.7713C109.858 36.7713 109.357 37.7751 107.92 37.7751C106.178 37.7751 105.145 36.3809 105.203 34.3886C105.264 32.1963 106.691 31.0726 108.208 31.0726L108.494 31.0707ZM109.794 32.1278H108.477C108.407 32.1316 108.333 32.1373 108.253 32.1373C107.26 32.1373 106.507 32.8287 106.46 34.4057C106.416 36.0456 107.135 36.7237 108.144 36.7237C109.27 36.7237 109.792 35.859 109.792 34.9486V32.1278H109.794ZM92.1708 34.0191L90.7764 33.6324C90.3923 33.5258 90.0403 33.3563 90.0403 32.8858C90.0403 32.3925 90.3374 32.1544 90.958 32.1544H92.1992C92.7498 32.1544 93.4007 31.9716 93.4007 31.0726L91.0658 31.0745C89.6279 31.0802 88.8048 31.8078 88.8048 32.8572C88.8048 33.8343 89.4216 34.381 90.519 34.6743L91.7337 34.9981C92.237 35.1333 92.413 35.4495 92.413 35.7771C92.413 36.2666 92.1065 36.5656 91.3497 36.5694L89.0205 36.5885V37.6513H91.3837C92.8274 37.6513 93.6504 36.8742 93.6504 35.8514C93.6504 34.8209 93.2474 34.3105 92.1708 34.0191Z" fill="#0033A0" fill-rule="evenodd"/>
<path clip-rule="evenodd" d="M115.583 38.9674C114.916 39.1998 114.193 39.396 113.408 39.5236C113.39 39.5255 113.377 39.5369 113.377 39.5541C113.377 39.5636 113.377 39.5712 113.385 39.5788C113.519 39.6836 113.682 39.7445 113.886 39.7693C114.138 39.7978 114.444 39.7655 114.794 39.674C115.105 39.594 115.404 39.455 115.742 39.2931C116.062 39.1388 116.369 38.9598 116.63 38.7731C116.895 38.5808 117.099 38.3979 117.22 38.2303C117.226 38.2075 117.216 38.1979 117.205 38.196C116.8 38.4741 116.248 38.7408 115.583 38.9674ZM117.142 37.8151C117.152 37.7884 117.142 37.7789 117.131 37.7751C116.488 38.0303 115.084 38.2779 114.208 38.4055C113.451 38.516 112.804 38.5332 112.441 38.556L112.278 38.5674C112.257 38.5732 112.244 38.5846 112.244 38.5998C112.24 38.6132 112.25 38.6227 112.259 38.6322C112.323 38.7065 112.537 38.9103 112.961 38.9693C113.451 39.0398 114.178 38.9198 115.086 38.6551C115.843 38.4417 116.715 38.0722 117.142 37.8151ZM117.046 38.9446C116.497 39.4836 115.689 39.7845 115.421 39.8683C115.406 39.8702 115.396 39.8836 115.394 39.895C115.394 39.9102 115.404 39.9255 115.413 39.9312C115.457 39.9502 115.784 40.1293 116.399 39.8207C116.747 39.6436 116.929 39.356 117.084 38.9731C117.091 38.9522 117.08 38.9427 117.069 38.9389C117.061 38.935 117.054 38.9408 117.046 38.9446ZM113.941 30.9507C114.104 31.1279 114.312 31.2536 114.567 31.3336L114.588 31.3412C114.664 31.3602 118.932 32.5106 120.064 32.8249C120.558 32.962 120.951 33.0706 121.131 33.1258C121.152 33.1258 121.163 33.1182 121.165 33.103C121.165 33.0973 121.161 33.0877 121.15 33.0839C120.435 32.7906 116.036 31.0688 114.376 30.4212L113.678 30.147C113.653 30.1412 113.644 30.1451 113.636 30.1508C113.627 30.1603 113.625 30.1717 113.625 30.1774C113.633 30.2384 113.667 30.5565 113.809 30.7812C113.85 30.8422 113.894 30.8974 113.941 30.9507ZM114.136 29.2537C114.219 29.3622 114.302 29.4327 114.456 29.526C114.511 29.5565 114.56 29.5946 114.62 29.6232L115.014 29.827C115.241 29.9393 118.535 31.505 119.016 31.745C119.587 32.0326 120.155 32.3068 120.406 32.4325C120.429 32.4364 120.44 32.4287 120.435 32.4021C119.818 32.0116 117.464 30.5012 115.784 29.446L114.569 28.7032L114.354 28.5661L113.939 28.3147C113.918 28.3052 113.907 28.3071 113.901 28.3147C113.886 28.3185 113.882 28.3299 113.882 28.3375C113.877 28.3947 113.871 28.707 113.968 28.947C114.009 29.0537 114.064 29.1642 114.136 29.2537ZM121.648 33.543C121.078 33.4344 114.181 32.1735 114.181 32.1735C114.164 32.1716 114.151 32.1792 114.142 32.1887C114.134 32.2002 114.138 32.2154 114.142 32.2287C114.249 32.5887 114.52 32.9525 114.984 33.0954C115.037 33.1125 115.084 33.1182 115.133 33.1239C115.133 33.1239 120.987 33.5353 121.638 33.583C121.653 33.583 121.666 33.5772 121.666 33.5658C121.668 33.5563 121.657 33.543 121.648 33.543ZM120.2 33.9448C119.595 33.9448 118.842 33.9448 118.142 33.941C117.201 33.9391 115.705 33.9448 115.705 33.9448C115.697 33.9448 115.686 33.9486 115.678 33.9582C115.67 33.9696 115.67 33.9791 115.678 33.9867C115.701 34.0515 115.784 34.2134 115.879 34.3143C116.064 34.5105 116.27 34.6153 116.48 34.64C116.505 34.6419 116.529 34.6419 116.556 34.6419C116.582 34.6419 116.605 34.64 116.635 34.6343C116.666 34.6305 121.114 34.0191 121.358 33.9829C121.368 33.9791 121.377 33.9696 121.377 33.9639C121.377 33.9506 121.368 33.9391 121.354 33.9391C121.15 33.9448 120.73 33.9448 120.2 33.9448ZM121.021 34.3962C120.743 34.4762 119.697 34.7448 118.77 34.9734C117.967 35.1791 117.067 35.4229 117.067 35.4229C116.974 35.4438 117.008 35.4857 117.018 35.4971C117.038 35.5352 117.095 35.6152 117.152 35.72C117.294 35.9638 117.489 35.9295 117.668 35.8685C117.701 35.8609 120.898 34.5315 121.046 34.4324C121.067 34.4229 121.053 34.4096 121.052 34.4039C121.048 34.3943 121.034 34.3962 121.021 34.3962ZM119.593 36.6285C119.167 36.9828 118.522 37.5427 117.852 38.1103C117.79 38.1617 117.763 38.2532 117.735 38.3713C117.693 38.5636 117.595 38.8112 117.595 38.8112C117.58 38.8665 117.602 38.8912 117.657 38.836C118.172 38.2817 119.316 37.019 119.623 36.6609C119.631 36.638 119.623 36.6247 119.612 36.6228L119.593 36.6285ZM118.872 36.1066C118.488 36.339 118.007 36.6076 117.757 36.7618C117.731 36.7809 117.703 36.7809 117.718 36.859C117.718 36.859 117.731 36.9313 117.735 37.019C117.761 37.3923 117.913 37.3523 118.134 37.1828L118.16 37.1599C118.932 36.5257 120.363 35.3238 120.677 35.061C120.683 35.0362 120.677 35.0248 120.662 35.0229C120.357 35.2095 119.555 35.6971 118.872 36.1066Z" fill="#00AEC7" fill-rule="evenodd"/>
<path d="M45.0485 37.5255C44.7798 37.3808 44.5736 37.1903 44.4298 36.9503C44.286 36.7103 44.2141 36.4513 44.2141 36.1713V33.0172H44.8593V36.0361C44.8593 36.2266 44.9066 36.4037 45.0031 36.5675C45.0996 36.7332 45.2358 36.8646 45.4099 36.9637C45.584 37.0627 45.7789 37.1122 45.9946 37.1122C46.2046 37.1122 46.3995 37.0646 46.5754 36.9694C46.7533 36.8741 46.8914 36.7446 46.9955 36.5808C47.0995 36.417 47.1506 36.2361 47.1506 36.0418V33.0172H47.8034V36.158C47.8034 36.4342 47.7239 36.6932 47.5688 36.937C47.4117 37.1808 47.1941 37.377 46.916 37.5217C46.6379 37.6684 46.3295 37.7408 45.9889 37.7408C45.6313 37.7427 45.3172 37.6703 45.0485 37.5255Z" fill="#00AEC7"/>
<path d="M49.3586 34.7314C49.5024 34.5867 49.6708 34.4724 49.8657 34.3886C50.0606 34.3048 50.2668 34.2629 50.4806 34.2629C50.7588 34.2629 50.9991 34.3219 51.1996 34.4419C51.4021 34.5619 51.5553 34.72 51.6632 34.9181C51.771 35.1162 51.824 35.3314 51.824 35.5619V37.6475H51.2053V35.739C51.2053 35.5714 51.1731 35.4209 51.1088 35.2819C51.0445 35.1447 50.9442 35.0343 50.8137 34.9543C50.6812 34.8724 50.5242 34.8324 50.3387 34.8324C50.1647 34.8324 49.9982 34.8667 49.8449 34.9371C49.6898 35.0076 49.5668 35.1009 49.4722 35.2171V37.6475H48.8478V34.3314C49.1297 34.3314 49.3 34.4648 49.3586 34.7314Z" fill="#00AEC7"/>
<path d="M53.1806 37.6247C53.0084 37.5447 52.8703 37.4342 52.77 37.2895C52.6697 37.1447 52.6187 36.979 52.6187 36.7885C52.6187 36.6 52.666 36.4305 52.7606 36.2819C52.8552 36.1333 52.9952 36.0133 53.1806 35.9238C53.366 35.8343 53.5893 35.7886 53.8504 35.7886L54.8797 35.7829V35.5734C54.8797 35.3486 54.8097 35.1601 54.6716 35.0077C54.5315 34.8572 54.3367 34.781 54.0869 34.781C53.8618 34.781 53.6763 34.8382 53.5287 34.9544C53.3812 35.0705 53.2941 35.2324 53.2657 35.4458H52.7152C52.7341 35.202 52.8079 34.9905 52.9365 34.8134C53.0671 34.6344 53.2355 34.4991 53.4417 34.4077C53.6479 34.3144 53.875 34.2687 54.121 34.2687C54.4086 34.2687 54.6564 34.3258 54.8646 34.442C55.0727 34.5582 55.2316 34.7125 55.3395 34.9086C55.4473 35.1048 55.5003 35.3258 55.5003 35.5677V37.7066C55.366 37.7123 55.2543 37.6799 55.1673 37.6113C55.0802 37.5428 55.0235 37.4133 54.9951 37.219C54.8419 37.3866 54.664 37.5161 54.4596 37.6075C54.2553 37.7009 54.0226 37.7466 53.7634 37.7466C53.5477 37.7428 53.3528 37.7028 53.1806 37.6247ZM53.4114 37.1295C53.542 37.2266 53.7104 37.2742 53.9166 37.2742C54.3196 37.2742 54.6394 37.1371 54.8778 36.8609V36.1981H53.9772C53.7312 36.1981 53.542 36.2495 53.4114 36.3543C53.2809 36.4571 53.2166 36.5905 53.2166 36.7543C53.2166 36.9085 53.2828 37.0323 53.4114 37.1295Z" fill="#00AEC7"/>
<path d="M60.4576 37.4779C60.1794 37.6494 59.8653 37.7351 59.5172 37.7351C59.1804 37.7351 58.8815 37.6608 58.6204 37.5122C58.3592 37.3637 58.1549 37.1561 58.0092 36.8932C57.8635 36.6285 57.7916 36.3313 57.7916 35.9961C57.7916 35.6799 57.8654 35.3904 58.013 35.1257C58.1606 34.8609 58.363 34.6514 58.6222 34.4972C58.8796 34.341 59.1672 34.2629 59.4869 34.2629C59.7783 34.2629 60.047 34.3276 60.2911 34.4591C60.5351 34.5905 60.7319 34.7809 60.8795 35.0305C61.0271 35.28 61.1009 35.5752 61.1009 35.9142C61.1009 36.0133 61.0971 36.0875 61.0876 36.1371H58.4179V36.1637C58.4349 36.3809 58.4974 36.5694 58.6033 36.7313C58.7093 36.8932 58.8455 37.0189 59.0139 37.1065C59.1823 37.1941 59.3696 37.238 59.5759 37.238C59.7953 37.238 60.0016 37.1789 60.1908 37.0589C60.3819 36.9389 60.5105 36.7732 60.5768 36.5618L61.0479 36.798C60.9306 37.0818 60.7357 37.3065 60.4576 37.4779ZM60.327 35.1904C60.2343 35.0457 60.1151 34.9352 59.9675 34.859C59.8199 34.7829 59.6515 34.7429 59.4623 34.7429C59.2826 34.7429 59.1199 34.7828 58.9723 34.8609C58.8247 34.9409 58.7017 35.0533 58.6052 35.2C58.5087 35.3466 58.4463 35.5142 58.4198 35.7047H60.4841C60.4727 35.5066 60.4197 35.3352 60.327 35.1904Z" fill="#00AEC7"/>
<path d="M62.2267 34.4191C62.3118 34.4781 62.3705 34.581 62.4008 34.7314C62.5446 34.5867 62.7129 34.4724 62.9078 34.3886C63.1027 34.3048 63.309 34.2629 63.5228 34.2629C63.7782 34.2629 64.0015 34.3162 64.1944 34.4229C64.3874 34.5295 64.5388 34.6724 64.6523 34.8533C64.8321 34.6552 65.0251 34.5067 65.2313 34.4095C65.4375 34.3124 65.6532 34.2648 65.8765 34.2648C66.1546 34.2648 66.3949 34.3238 66.5955 34.4438C66.798 34.5638 66.9512 34.7219 67.0591 34.92C67.1669 35.1181 67.2199 35.3333 67.2199 35.5638V37.6494H66.6012V35.7409C66.6012 35.4838 66.5255 35.2685 66.376 35.0952C66.2265 34.9219 66.0146 34.8343 65.7403 34.8343C65.5738 34.8343 65.4129 34.8724 65.2559 34.9466C65.0989 35.0209 64.9551 35.1352 64.8264 35.2876C64.8529 35.3733 64.8661 35.4666 64.8661 35.5657V37.6513H64.2474V35.7428C64.2474 35.5752 64.2153 35.4247 64.1509 35.2857C64.0866 35.1485 63.9863 35.0381 63.8558 34.9581C63.7233 34.8762 63.5663 34.8362 63.3809 34.8362C63.2068 34.8362 63.0403 34.8705 62.887 34.9409C62.7319 35.0114 62.6089 35.1047 62.5143 35.2209V37.6513H61.8899V34.3353C62.0299 34.3314 62.1415 34.36 62.2267 34.4191Z" fill="#00AEC7"/>
<path d="M68.5425 34.4192C68.6257 34.4782 68.6844 34.5811 68.7203 34.7316C68.8547 34.5868 69.0212 34.4744 69.218 34.3925C69.4147 34.3106 69.6285 34.2706 69.8575 34.2706C70.1262 34.2706 70.3854 34.3316 70.6332 34.4535C70.883 34.5754 71.0854 34.7639 71.2444 35.0192C71.4033 35.2744 71.4828 35.5887 71.4828 35.9639C71.4828 36.2934 71.4071 36.5943 71.2576 36.8667C71.1081 37.139 70.9038 37.3543 70.6465 37.5105C70.3891 37.6666 70.1053 37.7428 69.795 37.7428C69.602 37.7428 69.4242 37.7143 69.2596 37.659C69.0969 37.6038 68.9568 37.52 68.8395 37.4114V38.9066H68.2133V34.3316C68.3514 34.3316 68.4611 34.3602 68.5425 34.4192ZM69.2085 37.1067C69.3542 37.1695 69.5226 37.2019 69.7156 37.2019C69.918 37.2019 70.1053 37.1505 70.2775 37.0495C70.4497 36.9486 70.5897 36.8057 70.6938 36.621C70.7997 36.4362 70.8508 36.2267 70.8508 35.9924C70.8508 35.7315 70.7959 35.5125 70.6862 35.3353C70.5765 35.1601 70.4365 35.0287 70.2662 34.943C70.0959 34.8573 69.9161 34.8154 69.7288 34.8154C69.5358 34.8154 69.3618 34.8516 69.2085 34.9277C69.0533 35.002 68.9322 35.103 68.8414 35.2287V36.8324C68.9417 36.9505 69.0628 37.0438 69.2085 37.1067Z" fill="#00AEC7"/>
<path d="M73.7249 34.9277C73.371 34.9277 73.0967 35.0401 72.9037 35.2667V37.6494H72.2793V34.3334C72.4174 34.3334 72.5309 34.3639 72.6199 34.4248C72.7069 34.4858 72.7656 34.5944 72.7977 34.7524C72.9359 34.6115 73.0986 34.5067 73.2821 34.4344C73.4656 34.362 73.6738 34.3258 73.9065 34.3258V34.941C73.8516 34.9315 73.7911 34.9277 73.7249 34.9277Z" fill="#00AEC7"/>
<path d="M76.8979 37.4779C76.6197 37.6494 76.3056 37.7351 75.9575 37.7351C75.6207 37.7351 75.3218 37.6608 75.0607 37.5122C74.7977 37.3637 74.5952 37.1561 74.4495 36.8932C74.3038 36.6285 74.2319 36.3313 74.2319 35.9961C74.2319 35.6799 74.3057 35.3904 74.4533 35.1257C74.6009 34.8609 74.8033 34.6514 75.0626 34.4972C75.3199 34.341 75.6075 34.2629 75.9272 34.2629C76.2186 34.2629 76.4873 34.3276 76.7314 34.4591C76.9754 34.5905 77.1722 34.7809 77.3198 35.0305C77.4674 35.28 77.5412 35.5752 77.5412 35.9142C77.5412 36.0133 77.5374 36.0875 77.5279 36.1371H74.8582V36.1637C74.8752 36.3809 74.9377 36.5694 75.0436 36.7313C75.1496 36.8932 75.2858 37.0189 75.4542 37.1065C75.6226 37.1941 75.8099 37.238 76.0162 37.238C76.2356 37.238 76.4419 37.1789 76.6311 37.0589C76.8222 36.9389 76.9508 36.7732 77.0171 36.5618L77.4882 36.798C77.3709 37.0818 77.1741 37.3065 76.8979 37.4779ZM76.7654 35.1904C76.6727 35.0457 76.5535 34.9352 76.4059 34.859C76.2583 34.7829 76.09 34.7429 75.9007 34.7429C75.721 34.7429 75.5583 34.7828 75.4107 34.8609C75.2631 34.9409 75.1401 35.0533 75.0436 35.2C74.9471 35.3466 74.8847 35.5142 74.8582 35.7047H76.9225C76.9111 35.5066 76.8581 35.3352 76.7654 35.1904Z" fill="#00AEC7"/>
<path d="M78.8241 37.1275C78.9887 37.2132 79.1685 37.257 79.3652 37.257C79.5809 37.257 79.7588 37.2113 79.9007 37.1179C80.0426 37.0246 80.1126 36.9027 80.1126 36.7484C80.1126 36.617 80.0653 36.5104 79.9688 36.4266C79.8723 36.3428 79.738 36.2894 79.562 36.2666L79.0984 36.2056C78.8108 36.1732 78.5876 36.0742 78.4268 35.9085C78.2659 35.7409 78.1846 35.539 78.1846 35.299C78.1846 35.1047 78.2413 34.9295 78.3567 34.7714C78.4703 34.6133 78.6273 34.4895 78.8241 34.4C79.0209 34.3086 79.2385 34.2648 79.4769 34.2648C79.719 34.2648 79.9461 34.3162 80.1599 34.421C80.3737 34.5257 80.527 34.6647 80.6197 34.84L80.2961 35.2457C80.2204 35.0838 80.105 34.96 79.9537 34.8762C79.8004 34.7924 79.6301 34.7505 79.4428 34.7505C79.2328 34.7505 79.0625 34.7962 78.9319 34.8895C78.8014 34.9828 78.7371 35.1028 78.7371 35.2514C78.7371 35.3733 78.7825 35.4704 78.8714 35.5447C78.9603 35.619 79.0909 35.6685 79.2612 35.6895L79.6774 35.7428C79.9915 35.7828 80.2337 35.8875 80.4078 36.0551C80.5799 36.2228 80.667 36.4342 80.667 36.6913C80.667 36.8951 80.6083 37.0741 80.491 37.2322C80.3737 37.3903 80.2167 37.5141 80.0161 37.6036C79.8174 37.6932 79.5923 37.7389 79.3406 37.7389C79.0814 37.7389 78.8411 37.6893 78.6254 37.5903C78.4078 37.4913 78.2413 37.3541 78.124 37.177L78.4268 36.7504C78.527 36.9161 78.6595 37.0418 78.8241 37.1275Z" fill="#00AEC7"/>
<path d="M81.8097 37.6247C81.6376 37.5447 81.4994 37.4342 81.3992 37.2895C81.2989 37.1447 81.2478 36.979 81.2478 36.7885C81.2478 36.6 81.2951 36.4305 81.3897 36.2819C81.4843 36.1333 81.6243 36.0133 81.8097 35.9238C81.9952 35.8343 82.2184 35.7886 82.4795 35.7886L83.5088 35.7829V35.5734C83.5088 35.3486 83.4388 35.1601 83.3007 35.0077C83.1607 34.8572 82.9658 34.781 82.7161 34.781C82.4909 34.781 82.3055 34.8382 82.1579 34.9544C82.0103 35.0705 81.9233 35.2324 81.8949 35.4458H81.3443C81.3632 35.202 81.437 34.9905 81.5657 34.8134C81.6962 34.6344 81.8646 34.4991 82.0709 34.4077C82.2771 34.3144 82.5041 34.2687 82.7501 34.2687C83.0377 34.2687 83.2856 34.3258 83.4937 34.442C83.7018 34.5582 83.8608 34.7125 83.9686 34.9086C84.0765 35.1048 84.1294 35.3258 84.1294 35.5677V37.7066C83.9951 37.7123 83.8835 37.6799 83.7964 37.6113C83.7094 37.5428 83.6526 37.4133 83.6243 37.219C83.471 37.3866 83.2931 37.5161 83.0888 37.6075C82.8845 37.7009 82.6517 37.7466 82.3925 37.7466C82.1749 37.7428 81.9819 37.7028 81.8097 37.6247ZM82.0406 37.1295C82.1711 37.2266 82.3395 37.2742 82.5458 37.2742C82.9488 37.2742 83.2685 37.1371 83.5069 36.8609V36.1981H82.6063C82.3603 36.1981 82.1711 36.2495 82.0406 36.3543C81.91 36.4571 81.8457 36.5905 81.8457 36.7543C81.8457 36.9085 81.91 37.0323 82.0406 37.1295Z" fill="#00AEC7"/>
</svg>